<svg width="375" height="59" viewBox="0 0 375 59" fill="none" xmlns="http://www.w3.org/2000/svg">
<path d="M151.112 17.2727H157.004V34.3693C156.996 35.9711 156.613 37.3717 155.857 38.571C155.1 39.7623 154.054 40.688 152.718 41.348C151.389 42.008 149.852 42.3381 148.105 42.3381C146.56 42.3381 145.155 42.0684 143.892 41.5291C142.636 40.9898 141.634 40.1527 140.885 39.0178C140.145 37.8828 139.778 36.4299 139.786 34.6591H145.739C145.763 35.295 145.884 35.8383 146.101 36.2891C146.326 36.7318 146.636 37.0658 147.031 37.2912C147.425 37.5166 147.896 37.6293 148.443 37.6293C149.015 37.6293 149.498 37.5085 149.892 37.267C150.287 37.0175 150.585 36.6513 150.786 36.1683C150.995 35.6854 151.104 35.0857 151.112 34.3693V17.2727ZM169.787 42.3501C167.839 42.3501 166.165 41.9517 164.764 41.1548C163.371 40.3499 162.297 39.2311 161.54 37.7983C160.792 36.3575 160.417 34.6873 160.417 32.7876C160.417 30.88 160.792 29.2098 161.54 27.777C162.297 26.3362 163.371 25.2173 164.764 24.4205C166.165 23.6155 167.839 23.2131 169.787 23.2131C171.735 23.2131 173.405 23.6155 174.797 24.4205C176.198 25.2173 177.273 26.3362 178.021 27.777C178.778 29.2098 179.156 30.88 179.156 32.7876C179.156 34.6873 178.778 36.3575 178.021 37.7983C177.273 39.2311 176.198 40.3499 174.797 41.1548C173.405 41.9517 171.735 42.3501 169.787 42.3501ZM169.823 37.8949C170.531 37.8949 171.131 37.6776 171.622 37.2429C172.113 36.8082 172.487 36.2045 172.745 35.4318C173.01 34.6591 173.143 33.7656 173.143 32.7514C173.143 31.7211 173.01 30.8196 172.745 30.0469C172.487 29.2741 172.113 28.6705 171.622 28.2358C171.131 27.8011 170.531 27.5838 169.823 27.5838C169.09 27.5838 168.471 27.8011 167.964 28.2358C167.465 28.6705 167.082 29.2741 166.817 30.0469C166.559 30.8196 166.43 31.7211 166.43 32.7514C166.43 33.7656 166.559 34.6591 166.817 35.4318C167.082 36.2045 167.465 36.8082 167.964 37.2429C168.471 37.6776 169.09 37.8949 169.823 37.8949ZM182.555 42V17.2727H188.459V26.63H188.579C188.821 26.0665 189.163 25.5232 189.606 25C190.056 24.4768 190.628 24.0502 191.32 23.7202C192.02 23.3821 192.858 23.2131 193.832 23.2131C195.119 23.2131 196.323 23.5511 197.442 24.2273C198.569 24.9034 199.478 25.9458 200.17 27.3544C200.863 28.763 201.209 30.558 201.209 32.7393C201.209 34.8402 200.875 36.599 200.207 38.0156C199.546 39.4323 198.653 40.4948 197.526 41.2031C196.407 41.9115 195.164 42.2656 193.795 42.2656C192.862 42.2656 192.053 42.1127 191.368 41.8068C190.684 41.5009 190.109 41.0985 189.642 40.5994C189.183 40.1004 188.829 39.5651 188.579 38.9936H188.398V42H182.555ZM188.338 32.7273C188.338 33.7254 188.471 34.5947 188.736 35.3352C189.01 36.0758 189.4 36.6513 189.908 37.0618C190.423 37.4643 191.038 37.6655 191.755 37.6655C192.479 37.6655 193.095 37.4643 193.602 37.0618C194.109 36.6513 194.492 36.0758 194.749 35.3352C195.015 34.5947 195.148 33.7254 195.148 32.7273C195.148 31.7292 195.015 30.8639 194.749 30.1314C194.492 29.3989 194.109 28.8314 193.602 28.429C193.103 28.0265 192.487 27.8253 191.755 27.8253C191.03 27.8253 190.415 28.0225 189.908 28.4169C189.4 28.8113 189.01 29.3748 188.736 30.1072C188.471 30.8397 188.338 31.7131 188.338 32.7273Z" fill="black"/>
<path d="M211.335 17.2727V42H205.359V17.2727H211.335ZM221.365 31.4233V42H215.461V23.4545H221.076V26.8594H221.281C221.691 25.7244 222.392 24.835 223.382 24.1911C224.372 23.5391 225.551 23.2131 226.919 23.2131C228.223 23.2131 229.354 23.5069 230.312 24.0945C231.278 24.674 232.027 25.487 232.558 26.5334C233.097 27.5717 233.363 28.7872 233.355 30.1797V42L227.451 42V31.3388C227.459 30.3085 227.197 29.5036 226.666 28.924C226.143 28.3445 225.414 28.0547 224.48 28.0547C223.861 28.0547 223.313 28.1915 222.838 28.4652C222.372 28.7308 222.009 29.1132 221.752 29.6122C221.502 30.1113 221.373 30.715 221.365 31.4233Z" fill="#5C6BC0"/>
</svg>
