<svg width="32" height="32" viewBox="0 0 32 32" fill="none" xmlns="http://www.w3.org/2000/svg">
<path d="M6.12637 25.8736L6.83348 25.1665L6.12638 25.8736C6.49515 26.2424 6.94711 26.2357 7.1538 26.2155C7.33342 26.1979 7.53635 26.1469 7.68284 26.1101C7.69483 26.1071 7.70645 26.1042 7.71765 26.1014L11.7051 25.1045C11.723 25.1 11.7415 25.0955 11.7604 25.0908C11.9687 25.0394 12.2324 24.9743 12.4741 24.8374C12.7159 24.7005 12.9074 24.5079 13.0586 24.3558C13.0723 24.3419 13.0857 24.3285 13.0988 24.3154L23.2929 14.1213C23.3057 14.1085 23.3186 14.0957 23.3314 14.0829C23.6313 13.7831 23.9228 13.4917 24.1308 13.219C24.3653 12.9116 24.5858 12.5137 24.5858 12C24.5858 11.4863 24.3653 11.0884 24.1308 10.781C23.9228 10.5083 23.6313 10.217 23.3314 9.91716C23.3189 9.90464 23.3063 9.89211 23.2938 9.87955C23.2935 9.87926 23.2932 9.87897 23.2929 9.87868L22.1213 8.70711C22.1085 8.69427 22.0957 8.68144 22.0829 8.66863C21.783 8.36871 21.4917 8.07723 21.219 7.86919C20.9116 7.63466 20.5137 7.41421 20 7.41421C19.4863 7.41421 19.0884 7.63466 18.781 7.86919C18.5083 8.07723 18.2169 8.36871 17.9171 8.66863C17.9043 8.68145 17.8915 8.69427 17.8787 8.70711L7.68461 18.9012C7.67153 18.9143 7.65805 18.9277 7.64424 18.9414C7.49206 19.0926 7.29945 19.2841 7.16256 19.5259L8.03276 20.0186L7.16256 19.5259C7.02568 19.7676 6.96061 20.0313 6.9092 20.2396C6.90454 20.2585 6.89998 20.277 6.8955 20.2949L5.89863 24.2823C5.89583 24.2936 5.89291 24.3052 5.88989 24.3172C5.85307 24.4637 5.80207 24.6666 5.7845 24.8462C5.76428 25.0529 5.7576 25.5048 6.12637 25.8736Z" stroke="black" stroke-width="2"/>
<path d="M16.6667 9.99998L20.6667 7.33331L24.6667 11.3333L22 15.3333L16.6667 9.99998Z" fill="black"/>
</svg>
