<svg width="80" height="33" viewBox="0 0 80 33" fill="none" xmlns="http://www.w3.org/2000/svg">
  <rect width="80" height="33" fill="white"/>

  <g clip-path="url(#clip0_5010_1108)">
    <path d="M10.7467 17.2884H16.2151L7.18831 25.5968H13.2394L19.0585 20.3566V25.5968H23.4331V13.1252H10.7467V17.2884Z" fill="#1A1A1A"></path>
    <path d="M4.2468 13.3808C4.2468 7.23684 8.42438 4.37512 12.427 4.37512C16.4296 4.37512 18.7078 6.66435 19.5849 9.39145L23.5609 8.02412C22.2335 3.94707 18.4066 0.5 12.427 0.5C6.02219 0.5 0 5.2471 0 13.3808C0 14.3163 0.0783486 15.2049 0.220593 16.0489L4.30917 14.643C4.26962 14.2376 4.2468 13.8179 4.2468 13.3808Z" fill="#1A1A1A"></path>
    <path d="M41.432 8.62378H37.3593V18.6769C37.3593 20.9109 36.1309 22.4816 33.7781 22.4816C31.4254 22.4816 30.3376 20.7014 30.3376 18.6073V8.62378H26.265V19.3401C26.265 23.1101 28.6528 26.1117 32.7254 26.1117C34.7267 26.1117 36.728 25.2738 37.5708 23.7378C37.5708 24.4358 37.6408 25.239 37.7115 25.6232H41.6084C41.5384 24.9947 41.4327 23.9125 41.4327 22.5164V8.62378H41.432Z" fill="#1A1A1A"></path>
    <path d="M53.7175 8.24044C51.0841 8.24044 49.1185 9.46182 48.2757 10.9282V8.62463H44.3438V32.2558H48.3814V23.7039C49.2592 24.9956 51.1198 26.0423 53.5775 26.0423C58.4929 26.0423 61.6178 22.2027 61.6178 17.1062C61.6178 12.0097 58.7736 8.23969 53.7182 8.23969L53.7175 8.24044ZM52.9454 22.4477C50.277 22.4477 48.3457 20.3536 48.3457 17.1069C48.3457 13.8603 50.277 11.8357 52.9454 11.8357C55.6138 11.8357 57.5444 13.9299 57.5444 17.1069C57.5444 20.284 55.648 22.4477 52.9454 22.4477Z" fill="#1A1A1A"></path>
    <path d="M75.6817 8.62378L71.0819 19.3757L66.1665 8.62378H61.5675L68.8699 23.5994L64.7623 32.4999H69.1156L80 8.62378H75.6817Z" fill="#1A1A1A"></path>
  </g>

  <defs>
    <clipPath id="clip0_5010_1108">
      <rect width="80" height="32" fill="white" transform="translate(0 0.5)" />
    </clipPath>
  </defs>
</svg>
