<?xml version="1.0" encoding="utf-8"?>
<!-- Generator: Adobe Illustrator 26.3.1, SVG Export Plug-In . SVG Version: 6.00 Build 0)  -->
<svg version="1.1" id="Camada_1" xmlns="http://www.w3.org/2000/svg" xmlns:xlink="http://www.w3.org/1999/xlink" x="0px" y="0px"
	 viewBox="0 0 995 377.7" style="enable-background:new 0 0 995 377.7;" xml:space="preserve">
<style type="text/css">
	.st0{fill:#0D3878;}
	.st1{fill-rule:evenodd;clip-rule:evenodd;fill:#FF6F00;}
</style>
<path id="infojobs" class="st0" d="M39,233.9V0H0v233.9H39z M107,233.9V110.1c13.4-8.2,25.4-12.3,36.1-12.3
	c15.6,0,23.4,8.1,23.4,24.4v111.8h37V115c0-15.2-4.3-26.7-12.8-34.8c-8.6-8-19.7-12-33.3-12c-11.3,0-22.5,3-33.8,9.1l-15.9,15.9H107
	l-1.6-21.8H70.3v162.4H107z M518,71.5v160.2c0,17.3-3.3,31.8-9.9,43.5c-6.5,11.5-19,21.5-37.4,29.9l-0.8,0.4L455,283.3
	c11-6.9,18.2-13.7,21.4-20.3c3.2-6.5,4.8-16.7,4.9-30.6l0-0.8V71.5H518z M385.6,68.2c24.5,0,43,7.4,55.7,22.1s19,35.5,19,62.4
	s-6.3,47.7-19,62.4c-12.7,14.7-31.2,22.1-55.7,22.1c-24.3,0-42.7-7.4-55.4-22.3c-12.7-14.8-19-35.6-19-62.2s6.3-47.4,19-62.2
	S361.4,68.2,385.6,68.2z M317,0v29.9l-1.9,1.3c-5.8-1.7-12.3-2.6-19.5-2.6c-14.4,0-21.6,8.8-21.8,26.4l0,0.5v15.9h35.7v26h-35.7
	v136.5h-37V97.5h-18.2V81.9l18.2-10.4V61.4c0-13,1.8-23.7,5.4-32.2s9.2-14.7,16.9-18.8c7.7-4.1,15.9-6.9,24.7-8.3
	C292.5,0.7,303.6,0,317,0z M385.6,93.2c-13.2,0-22.6,5-28.3,15.1c-5.6,10.1-8.4,24.9-8.4,44.3s2.8,34.3,8.3,44.3
	c5.5,10.1,15,15.1,28.4,15.1s22.9-5,28.4-15.1c5.5-10.1,8.3-24.9,8.3-44.3c0-19.7-2.8-34.5-8.4-44.5
	C408.3,98.2,398.9,93.2,385.6,93.2z M499.1,8.4c6.3,0,11.4,1.9,15.4,5.7s6,8.5,6,14.1c0,5.6-2,10.3-6,14.1c-4,3.8-9.2,5.7-15.4,5.7
	c-6.5,0-11.7-1.9-15.6-5.7c-3.9-3.8-5.8-8.5-5.8-14.1c0-5.6,1.9-10.3,5.8-14.1C487.4,10.3,492.6,8.4,499.1,8.4z M612.6,68.2
	c24.5,0,43,7.4,55.7,22.1c12.7,14.7,19,35.5,19,62.4s-6.3,47.7-19,62.4c-12.7,14.7-31.2,22.1-55.7,22.1c-24.3,0-42.7-7.4-55.4-22.3
	c-12.7-14.8-19-35.6-19-62.2s6.3-47.4,19-62.2C569.9,75.6,588.4,68.2,612.6,68.2z M612.6,93.2c-13.2,0-22.6,5-28.3,15.1
	c-5.6,10.1-8.4,24.9-8.4,44.3s2.8,34.3,8.3,44.3c5.5,10.1,15,15.1,28.4,15.1c13.4,0,22.9-5,28.4-15.1c5.5-10.1,8.3-24.9,8.3-44.3
	c0-19.7-2.8-34.5-8.4-44.5C635.3,98.2,625.8,93.2,612.6,93.2z M744.6,0l0,73.4l0,0V123l0,0l0,82.7c9.7,5.6,19.9,8.4,30.5,8.4
	c13.9,0,23.7-5.3,29.6-15.8c5.8-10.5,8.8-25.7,8.8-45.6c0-20.4-3.1-35.1-9.3-44.2c-6.2-9.1-15.3-13.6-27.5-13.6
	c-6.8,0-14.2,2.2-22.3,6.5l0-18l9.9-7.6c8.7-5,18.2-7.5,28.6-7.5c18.4,0,32.8,7.5,43,22.6s15.4,35.7,15.4,61.9
	c0,26.6-6.3,47.4-19,62.2c-12.7,14.8-30.3,22.3-52.8,22.3c-18.1,0-33.9-4.6-47.4-13.9l-0.6-0.4l-10.4,12.7h-13.3V0H744.6z
	 M922.1,237.2c17.8,0,32.3-4.5,43.7-13.5c11.4-9,17.1-21.2,17.1-36.6c0-10.2-2.8-18.8-8.3-26c-5.5-7.1-12.3-12.5-20.3-16.1
	c-8-3.6-16-6.8-23.9-9.6c-7.9-2.8-14.6-6.1-20.1-9.9c-5.5-3.8-8.3-8.4-8.3-13.8c0-5,1.9-9,5.8-12.2s9.7-4.7,17.5-4.7
	c13.2,0,26.7,2.9,40.6,8.8l2.3-1.3l7.8-24.7c-16.7-6.3-34.2-9.4-52.6-9.4c-16.7,0-30.5,3.9-41.6,11.7c-11,7.8-16.6,19.1-16.6,33.8
	c0,10.2,2.7,18.8,8.1,26c5.4,7.1,12.1,12.6,20,16.2c7.9,3.7,15.8,7,23.6,10.1s14.4,6.5,19.8,10.4c5.4,3.9,8.1,8.6,8.1,14
	c0,5.6-2.2,10.4-6.5,14.3c-4.3,3.9-10.8,5.8-19.5,5.8c-18.4,0-36.7-4.5-54.9-13.6l3.6,28.9C884.7,233.4,902.9,237.2,922.1,237.2z"/>
<path id="Smile" class="st1" d="M746.3,337.1c-72.2,13.8-146.7,21.2-220.2,15.7c-10-0.7-32.4-7.4-37.3,6.1c-0.4,1-0.5,2.1-0.5,3.2
	c0,11.6,12.1,12,20.5,12.9c80.8,8.9,162.2-5.6,241.4-20.7c77.7-14.8,158.6-38.8,228.6-76.6c4.1-2.2,23.6-10.8,13.4-17.8
	c-0.3-0.2-0.5-0.3-0.8-0.5c-1.8-1-3.7-1.5-5.7-1.5c-7.1,0-15.2,5.4-20.8,8C895.2,298.3,821.4,322.8,746.3,337.1z"/>
</svg>
