<svg width="73" height="18" viewBox="0 0 73 18" fill="none" xmlns="http://www.w3.org/2000/svg">
<path d="M0.5 2.66268H3.3141V12.7762H8.52404V15.3385H0.5V2.66268ZM9.76819 6.74389H12.4717V15.3337H9.76819V6.74389ZM11.1199 2.47346C11.9802 2.47362 12.688 3.17204 12.688 4.02078C12.688 4.8696 11.98 5.56809 11.1197 5.56809C10.2593 5.56809 9.55135 4.8696 9.55135 4.02078C9.55135 3.17196 10.2596 2.47346 11.1199 2.47346ZM23.7807 2.66075H26.4843V10.2361L29.5482 6.74003H32.8629L29.3145 10.7168L32.7882 15.3373H29.3902L26.5203 11.0913H26.4848V15.3368H23.7813L23.7807 2.66075ZM13.9707 6.74478H16.5669V7.91865H16.6038C17.1314 7.02675 18.1177 6.49219 19.1637 6.53108C21.9052 6.53108 22.4098 8.31069 22.4098 10.6226V15.3331H19.7063V11.1569C19.7063 10.16 19.6878 8.87858 18.2983 8.87858C16.893 8.87858 16.6762 9.96413 16.6762 11.0844V15.3321H13.9727L13.9707 6.74478Z" fill="#0A66C2"/>
<path d="M38.5563 10.0397C38.5565 10.0272 38.5567 10.0145 38.5567 10.002C38.5567 9.12465 37.8249 8.40272 36.9357 8.40272C36.9226 8.40272 36.9095 8.40288 36.8964 8.4032C35.9199 8.34322 35.0628 9.07738 34.986 10.0397H38.5563ZM40.8463 13.8461C39.9371 14.9339 38.5783 15.5621 37.1493 15.5552C34.4458 15.5552 32.2813 13.7747 32.2813 11.0177C32.2813 8.26069 34.4455 6.48108 37.1493 6.48108C39.6762 6.48108 41.2608 8.25924 41.2608 11.0177V11.854H34.986C35.1467 12.8302 36.0212 13.548 37.0234 13.5264C37.8045 13.5216 38.5319 13.1258 38.9527 12.4767L40.8463 13.8461ZM46.896 8.82021C45.5443 8.82021 44.7332 9.71073 44.7332 11.0083C44.7332 12.3058 45.5439 13.1971 46.896 13.1971C48.248 13.1971 49.0608 12.308 49.0608 11.0083C49.0608 9.70848 48.2494 8.82021 46.896 8.82021ZM51.5497 15.3321H49.0608V14.1929H49.0239C48.3914 15.0322 47.3961 15.5331 46.3361 15.5455C43.7385 15.5455 42.0274 13.6958 42.0274 11.0802C42.0274 8.67801 43.5417 6.47215 46.0308 6.47215C47.1497 6.47215 48.1948 6.77417 48.8079 7.61131H48.8434V2.65986H51.5493L51.5497 15.3321ZM69.8008 15.3371H67.0973V11.16C67.0973 10.1639 67.0793 8.88164 65.6912 8.88164C64.2831 8.88164 64.0677 9.96686 64.0677 11.0874V15.3368H61.3642V6.74695H63.9595V7.92082H63.9959C64.5244 7.02941 65.5105 6.49501 66.5566 6.53334C69.2967 6.53334 69.8019 8.31149 69.8019 10.6249L69.8008 15.3371ZM58.3138 5.57276C57.4531 5.57276 56.7446 4.8741 56.7446 4.02496C56.7446 3.17582 57.4528 2.47709 58.3135 2.47709C59.174 2.47709 59.8822 3.17566 59.8823 4.02464C59.8823 4.87362 59.1743 5.57268 58.3138 5.57276ZM59.6655 15.3371H56.9592V6.74695H59.6655V15.3371ZM71.1485 0.000114248H55.6006C54.8708 -0.00801806 54.2632 0.577507 54.2543 1.29758V16.701C54.2629 17.4215 54.8704 18.0076 55.6006 17.9999H71.1485C71.8806 18.009 72.4902 17.4229 72.5 16.701V1.29653C72.4902 0.57493 71.8798 -0.00938687 71.1485 0.000114248Z" fill="#0A66C2"/>
</svg>
