<svg width="160" height="32" viewBox="0 0 160 32" fill="none" xmlns="http://www.w3.org/2000/svg">
<path d="M71.5028 11.4084V3.26723H69.8917V0H77.2867V3.26723H75.6823V11.4084H71.5028Z" fill="#091A47"/>
<path fill-rule="evenodd" clip-rule="evenodd" d="M83.0908 8.121H82.3762V11.4084H78.1968V0H84.3109C87.0546 0 88.5646 1.68739 88.5646 4.19496C88.5646 5.6 88.032 6.72269 87.0276 7.38823L88.578 11.4084H84.2368L83.0908 8.121ZM82.3762 3.23361V5.39832H83.2728C84.0076 5.39832 84.2637 4.89411 84.2637 4.30252C84.2637 3.72437 84.0076 3.23361 83.2593 3.23361H82.3762Z" fill="#091A47"/>
<path fill-rule="evenodd" clip-rule="evenodd" d="M95.3798 9.39831H93.1081L92.8182 11.4084H88.5848L91.0992 0H97.3954L99.9098 11.4084H95.6697L95.3798 9.39831ZM93.553 6.38655H94.9417L94.5439 3.65042H93.9507L93.553 6.38655Z" fill="#091A47"/>
<path fill-rule="evenodd" clip-rule="evenodd" d="M106.341 11.4084H100.517V0H106.159C108.356 0 109.711 1.37143 109.711 3.26723C109.711 3.89243 109.422 4.7126 109.058 5.23025C109.637 5.73445 110.244 6.67563 110.244 7.83193C110.244 9.92941 108.754 11.4084 106.341 11.4084ZM104.406 3.25378V4.39664H105.431C105.795 4.39664 105.99 4.15462 105.99 3.83193C105.99 3.51596 105.795 3.25378 105.444 3.25378H104.406ZM104.406 6.87731V8.19495H105.761C106.233 8.19495 106.449 7.90588 106.449 7.54285C106.449 7.17983 106.233 6.87731 105.781 6.87731H104.406Z" fill="#091A47"/>
<path fill-rule="evenodd" clip-rule="evenodd" d="M117.12 9.39831H114.848L114.565 11.4084H110.325L112.839 0H119.135L121.65 11.4084H117.41L117.12 9.39831ZM115.293 6.38655H116.682L116.284 3.65042H115.691L115.293 6.38655Z" fill="#091A47"/>
<path d="M128.148 11.4084H122.263V0H126.436V8.13445H128.148V11.4084Z" fill="#091A47"/>
<path d="M143.329 7.07227H133.238V11.4084H129.058V0H133.238V4.04706H143.329V0H147.509V11.4084H143.329V7.07227Z" fill="#091A47"/>
<path fill-rule="evenodd" clip-rule="evenodd" d="M155.47 9.39831H153.198L152.908 11.4084H148.668L151.183 0H157.479L160 11.4084H155.76L155.47 9.39831ZM153.636 6.38655H155.025L154.627 3.65042H154.034L153.636 6.38655Z" fill="#091A47"/>
<path fill-rule="evenodd" clip-rule="evenodd" d="M78.5203 32H69.8917V15.1059H78.2439C81.4999 15.1059 83.5088 17.1361 83.5088 19.9529C83.5088 20.874 83.0841 22.0908 82.538 22.8571C83.3942 23.5966 84.2975 24.995 84.2975 26.7092C84.2975 29.8151 82.0864 32 78.5203 32ZM75.6486 19.9261V21.6202H77.1654C77.7047 21.6202 78.0013 21.2571 78.0013 20.7866C78.0013 20.3092 77.7047 19.9261 77.1856 19.9261H75.6486ZM75.6486 25.2908V27.2471H77.6575C78.3585 27.2471 78.6754 26.8235 78.6754 26.279C78.6754 25.7412 78.3586 25.2908 77.6844 25.2908H75.6486Z" fill="#091A47"/>
<path fill-rule="evenodd" clip-rule="evenodd" d="M100.881 27.1395H91.7329V32H85.5446V15.1059H102.687C106.752 15.1059 108.99 17.6067 108.99 21.3244C108.99 23.395 108.201 25.0622 106.712 26.0571L109.01 32H102.573L100.881 27.1395ZM91.7329 19.9126V23.1059H101.157C102.236 23.1059 102.62 22.3664 102.62 21.4857C102.62 20.6319 102.236 19.9126 101.13 19.9126H91.7329Z" fill="#091A47"/>
<path fill-rule="evenodd" clip-rule="evenodd" d="M120.423 29.0286H117.052L116.628 32H110.345L114.073 15.1059H123.403L127.13 32H120.848L120.423 29.0286ZM117.713 24.5714H119.769L119.183 20.5177H118.3L117.713 24.5714Z" fill="#091A47"/>
<path d="M127.946 32V27.1597H134.316C135.038 27.1597 135.26 26.7765 135.26 26.4605C135.26 26.1244 135.038 25.7412 134.337 25.7412H133.339C129.84 25.7412 127.602 23.5765 127.602 20.4235C127.602 17.2706 129.84 15.1059 133.339 15.1059H141.044V19.9529H135.038C134.492 19.9529 134.175 20.1748 134.175 20.558C134.175 20.921 134.492 21.1698 135.038 21.1698H135.894C139.467 21.1698 141.678 23.4891 141.678 26.5748C141.678 29.6807 139.467 32 135.894 32H127.946Z" fill="#091A47"/>
<path d="M143.228 32V15.1059H149.416V32H143.228Z" fill="#091A47"/>
<path d="M159.987 32H151.264V15.1059H157.452V27.1597H159.987V32Z" fill="#091A47"/>
<path d="M58.6408 20.726C61.4586 18.8504 62.9484 15.7042 62.9484 11.7848C62.9484 4.75963 58.7285 0.0403099 51.0436 0.0403099H32.6269C38.6872 0.194932 42.0375 3.84535 42.0375 8.67896C42.0375 10.8033 41.06 13.0151 39.3074 14.3395C42.1251 15.6168 43.9587 18.5075 43.9587 21.9966C43.9587 27.6571 39.9882 31.9596 32.8224 31.9596H45.6238V22.7697H47.6259L50.8279 31.9596H62.9956L58.6408 20.726Z" fill="#038332"/>
<path d="M39.3074 14.3395C41.06 13.0218 42.0375 10.8101 42.0375 8.67896C42.0375 3.74451 38.5389 0.0403099 32.2225 0.0403099H24.1062V9.18988H17.8976V31.9596H17.8774H32.8224C39.9882 31.9596 43.9587 27.6638 43.9587 22.0033C43.9587 18.5143 42.1251 15.6168 39.3074 14.3395Z" fill="#FFCC26"/>
<path d="M6.20181 31.9663V9.18988H0V0.0403099H24.1062V9.18988H17.8976V31.9663H6.20181Z" fill="#015DE3"/>
</svg>
