<svg width="65" height="21" viewBox="0 0 65 21" fill="none" xmlns="http://www.w3.org/2000/svg">
<path d="M10.57 3.45455L14.0359 3.45455L14.0359 13.5114C14.0312 14.4536 13.8063 15.2775 13.3612 15.983C12.9162 16.6837 12.3006 17.2282 11.5146 17.6165C10.7334 18.0047 9.82903 18.1989 8.80157 18.1989C7.89248 18.1989 7.06625 18.0402 6.32288 17.723C5.58424 17.4058 4.99475 16.9134 4.55441 16.2457C4.11881 15.5781 3.90337 14.7235 3.9081 13.6818H7.40952C7.42373 14.0559 7.49475 14.3755 7.62259 14.6406C7.75517 14.901 7.93746 15.0975 8.16947 15.2301C8.40148 15.3627 8.67846 15.429 9.00043 15.429C9.33661 15.429 9.6207 15.358 9.85271 15.2159C10.0847 15.0691 10.2599 14.8537 10.3783 14.5696C10.5014 14.2855 10.5653 13.9328 10.57 13.5114L10.57 3.45455ZM21.7093 18.206C20.5635 18.206 19.5786 17.9716 18.7548 17.5028C17.9356 17.0294 17.3035 16.3712 16.8585 15.5284C16.4181 14.6809 16.1979 13.6984 16.1979 12.581C16.1979 11.4588 16.4181 10.4763 16.8585 9.63352C17.3035 8.78598 17.9356 8.12784 18.7548 7.65909C19.5786 7.18561 20.5635 6.94886 21.7093 6.94886C22.8551 6.94886 23.8376 7.18561 24.6567 7.65909C25.4806 8.12784 26.1127 8.78598 26.5531 9.63352C26.9981 10.4763 27.2207 11.4588 27.2207 12.581C27.2207 13.6984 26.9981 14.6809 26.5531 15.5284C26.1127 16.3712 25.4806 17.0294 24.6567 17.5028C23.8376 17.9716 22.8551 18.206 21.7093 18.206ZM21.7306 15.5852C22.1473 15.5852 22.5 15.4574 22.7889 15.2017C23.0777 14.946 23.2978 14.5909 23.4494 14.1364C23.6056 13.6818 23.6837 13.1562 23.6837 12.5597C23.6837 11.9536 23.6056 11.4233 23.4494 10.9688C23.2978 10.5142 23.0777 10.1591 22.7889 9.90341C22.5 9.64773 22.1473 9.51989 21.7306 9.51989C21.2997 9.51989 20.9352 9.64773 20.6369 9.90341C20.3433 10.1591 20.1184 10.5142 19.9621 10.9688C19.8106 11.4233 19.7349 11.9536 19.7349 12.5597C19.7349 13.1562 19.8106 13.6818 19.9621 14.1364C20.1184 14.5909 20.3433 14.946 20.6369 15.2017C20.9352 15.4574 21.2997 15.5852 21.7306 15.5852ZM29.3738 18L29.3738 3.45455H32.8468V8.95881H32.9178C33.0599 8.62737 33.2611 8.30777 33.5215 8C33.7867 7.69223 34.1228 7.44129 34.53 7.24716C34.942 7.0483 35.4344 6.94886 36.0073 6.94886C36.7649 6.94886 37.4727 7.14773 38.1309 7.54545C38.7938 7.94318 39.3288 8.55634 39.736 9.38494C40.1432 10.2135 40.3468 11.2694 40.3468 12.5526C40.3468 13.7884 40.1503 14.8229 39.7573 15.6563C39.3691 16.4896 38.8435 17.1146 38.1806 17.5313C37.5225 17.9479 36.7909 18.1563 35.986 18.1563C35.4368 18.1563 34.9609 18.0663 34.5584 17.8864C34.156 17.7064 33.8174 17.4697 33.5428 17.1761C33.2729 16.8826 33.0646 16.5677 32.9178 16.2315H32.8113V18H29.3738ZM32.7758 12.5455C32.7758 13.1326 32.8539 13.6439 33.0102 14.0795C33.1711 14.5152 33.4008 14.8537 33.6991 15.0952C34.0021 15.3319 34.3643 15.4503 34.7857 15.4503C35.2119 15.4503 35.5741 15.3319 35.8724 15.0952C36.1707 14.8537 36.3956 14.5152 36.5471 14.0795C36.7033 13.6439 36.7815 13.1326 36.7815 12.5455C36.7815 11.9583 36.7033 11.4493 36.5471 11.0185C36.3956 10.5876 36.1707 10.2538 35.8724 10.017C35.5788 9.7803 35.2166 9.66193 34.7857 9.66193C34.3596 9.66193 33.9974 9.77794 33.6991 10.0099C33.4008 10.242 33.1711 10.5734 33.0102 11.0043C32.8539 11.4351 32.7758 11.9489 32.7758 12.5455Z" fill="black"/>
<path d="M46.5433 3.45455L46.5433 18H43.0276L43.0276 3.45455H46.5433ZM52.5973 11.7784V18H49.1243L49.1243 7.09091H52.4268V9.09375H52.5476C52.7891 8.42614 53.201 7.90294 53.7834 7.52415C54.3658 7.14062 55.0594 6.94886 55.8643 6.94886C56.6314 6.94886 57.2966 7.12169 57.8601 7.46733C58.4283 7.80824 58.8686 8.28646 59.1811 8.90199C59.4983 9.51278 59.6546 10.2277 59.6499 11.0469V18H56.1768V11.7287C56.1816 11.1226 56.0277 10.6491 55.7152 10.3082C55.4074 9.96733 54.9789 9.79688 54.4297 9.79688C54.0651 9.79688 53.7431 9.87737 53.4638 10.0384C53.1892 10.1946 52.9761 10.4195 52.8246 10.7131C52.6778 11.0066 52.602 11.3617 52.5973 11.7784Z" fill="#5C6BC0"/>
</svg>
